# xmcd
#
# Track frame offsets:
#	187
#	12412
#	28887
#	53420
#	85290
#	103452
#	126792
#	145917
#	161480
#	173157
#
# Disc length: 2623 seconds
#
# Revision: 1
# Processed by: cddbd v1.5.1PL0 Copyright (c) Steve Scherf et al.
# Submitted via: audiograbber 1.83.01
#
DISCID=830a3d0a
DTITLE=B.B. King - Best Of Best1
DYEAR=1900
DGENRE=Blues
TTITLE0=Everyday I Have The Blues (Live)
TTITLE1=Aint Nobody Home
TTITLE2=The Thrll Is Gone
TTITLE3=Sweet Six Teen (Live)
TTITLE4=Rock Me Baby (Live)
TTITLE5=Dont Answer The Door
TTITLE6=Sweet Little Angel (Live)
TTITLE7=Help The Poor
TTITLE8=Paying The Cost To Be The Boos
TTITLE9=How Blus Can You Get (Live)
EXTD=
EXTT0=
EXTT1=
EXTT2=
EXTT3=
EXTT4=
EXTT5=
EXTT6=
EXTT7=
EXTT8=
EXTT9=
PLAYORDER=
